<svg width="6" height="5" viewBox="0 0 6 5" fill="none" xmlns="http://www.w3.org/2000/svg">
<path d="M2.1615 4.99217C2.11208 4.99201 2.06322 4.98169 2.01796 4.96185C1.9727 4.94201 1.932 4.91308 1.89839 4.87684L0.146768 3.01349C0.0812896 2.94371 0.0462132 2.85077 0.0492548 2.75513C0.0522964 2.65949 0.0932069 2.56897 0.162986 2.5035C0.232766 2.43802 0.325699 2.40294 0.42134 2.40598C0.516982 2.40903 0.607498 2.44994 0.672976 2.51972L2.15789 4.10194L5.189 0.786111C5.21976 0.747807 5.25802 0.716195 5.30144 0.693218C5.34487 0.670241 5.39253 0.656384 5.4415 0.652497C5.49047 0.64861 5.53972 0.654776 5.58622 0.670616C5.63273 0.686456 5.6755 0.711635 5.71192 0.744608C5.74834 0.77758 5.77763 0.817649 5.798 0.862355C5.81836 0.90706 5.82938 0.955457 5.83036 1.00457C5.83134 1.05369 5.82227 1.10249 5.80371 1.14797C5.78515 1.19346 5.75748 1.23467 5.72241 1.26907L2.42821 4.87324C2.39492 4.91013 2.35436 4.93974 2.30908 4.9602C2.26381 4.98067 2.21479 4.99156 2.1651 4.99217H2.1615Z" fill="#2A4AF4"/>
</svg>
